<svg width="138" height="38" viewBox="0 0 138 38" fill="none" xmlns="http://www.w3.org/2000/svg">
<path d="M21.0027 28.1893L3.0627 15.8143C1.2447 14.5603 1.8627 11.9493 4.1297 11.3353L23.1967 6.16028C23.6006 6.01454 24.0334 5.96723 24.4593 6.02228C24.8851 6.07733 25.2917 6.23315 25.6453 6.47681C25.9988 6.72047 26.2892 7.04494 26.4922 7.42329C26.6952 7.80164 26.8051 8.22296 26.8127 8.65228L25.6827 26.2013C25.5487 28.2843 22.8207 29.4433 21.0027 28.1893Z" fill="#E9327C"/>
<path d="M15.3127 31.2443L4.7437 10.5753C4.50211 10.1024 4.3958 9.57205 4.43649 9.04262C4.47718 8.51319 4.6633 8.00528 4.97431 7.57491C5.28533 7.14453 5.70916 6.80842 6.19907 6.60362C6.68897 6.39882 7.22592 6.3333 7.7507 6.41428L27.3377 9.43728C27.7887 9.50689 28.2167 9.68254 28.5865 9.94979C28.9563 10.217 29.2575 10.5683 29.4651 10.9746C29.6727 11.3809 29.781 11.8307 29.7809 12.287C29.7808 12.7433 29.6725 13.193 29.4647 13.5993L20.4417 31.2453C20.1994 31.7168 19.8318 32.1123 19.3793 32.3885C18.9269 32.6646 18.407 32.8107 17.8769 32.8106C17.3468 32.8105 16.827 32.6642 16.3746 32.3879C15.9222 32.1116 15.5548 31.7159 15.3127 31.2443Z" fill="#1DACE3"/>
<path d="M26.7647 9.34828L17.0007 7.84128L5.0127 11.0963L9.7977 20.4573L21.0027 28.1893C21.2499 28.3579 21.5218 28.4871 21.8087 28.5723L26.0647 20.2493L26.7647 9.34828Z" fill="#001A49"/>
<path d="M76.2217 11.7643C76.2217 11.4014 76.3293 11.0466 76.5309 10.7448C76.7326 10.443 77.0192 10.2079 77.3545 10.069C77.6898 9.93008 78.0587 9.89374 78.4147 9.96454C78.7706 10.0353 79.0976 10.2101 79.3542 10.4667C79.6109 10.7234 79.7856 11.0503 79.8564 11.4063C79.9272 11.7622 79.8909 12.1312 79.752 12.4665C79.6131 12.8018 79.3779 13.0884 79.0762 13.29C78.7744 13.4917 78.4196 13.5993 78.0567 13.5993C77.5716 13.5943 77.1077 13.3994 76.7646 13.0564C76.4216 12.7133 76.2266 12.2494 76.2217 11.7643ZM76.5277 14.4963H79.5867V24.6903H76.5277V14.4963Z" fill="#001A49"/>
<path d="M92.7967 19.5933C92.8322 20.2671 92.7342 20.9413 92.5083 21.5771C92.2823 22.2128 91.9329 22.7977 91.4801 23.298C91.0274 23.7982 90.4802 24.204 89.87 24.4921C89.2598 24.7801 88.5987 24.9447 87.9247 24.9763C87.3578 25.0071 86.7911 24.9115 86.2656 24.6964C85.7402 24.4812 85.2692 24.1519 84.8867 23.7323V28.7683H81.8287V14.4963H84.8867V15.4543C85.2693 15.0348 85.7403 14.7057 86.2658 14.4907C86.7912 14.2758 87.3578 14.1803 87.9247 14.2113C88.5987 14.2428 89.2597 14.4072 89.8699 14.6951C90.4801 14.9831 91.0273 15.3888 91.4801 15.889C91.9329 16.3892 92.2823 16.9739 92.5083 17.6097C92.7342 18.2454 92.8322 18.9195 92.7967 19.5933ZM89.7387 19.5933C89.7267 19.116 89.5742 18.6529 89.3003 18.2618C89.0264 17.8708 88.6432 17.5692 88.1988 17.3949C87.7543 17.2206 87.2683 17.1812 86.8016 17.2817C86.3348 17.3822 85.9081 17.6181 85.5748 17.9599C85.2415 18.3017 85.0164 18.7343 84.9277 19.2034C84.839 19.6725 84.8907 20.1574 85.0762 20.5973C85.2617 21.0372 85.5728 21.4126 85.9706 21.6766C86.3684 21.9406 86.8353 22.0813 87.3127 22.0813C87.6405 22.0961 87.9678 22.0413 88.273 21.9207C88.5782 21.8 88.8544 21.6162 89.0835 21.3812C89.3126 21.1462 89.4894 20.8655 89.6024 20.5573C89.7153 20.2492 89.7617 19.9206 89.7387 19.5933Z" fill="#001A49"/>
<path d="M102.236 21.6303C102.236 23.9753 100.197 24.9743 97.9947 24.9743C97.1051 25.0548 96.2119 24.8665 95.4305 24.4338C94.6491 24.0011 94.0155 23.344 93.6117 22.5473L96.2617 21.0393C96.3694 21.4075 96.6003 21.7276 96.9158 21.9461C97.2312 22.1645 97.6121 22.268 97.9947 22.2393C98.7287 22.2393 99.0947 22.0143 99.0947 21.6073C99.0947 20.4853 94.0797 21.0773 94.0797 17.5493C94.0797 15.3273 95.9547 14.2063 98.0797 14.2063C98.8767 14.1813 99.6659 14.3704 100.365 14.754C101.064 15.1376 101.648 15.7016 102.055 16.3873L99.4457 17.7943C99.3316 17.5267 99.1412 17.2986 98.8982 17.1386C98.6553 16.9785 98.3706 16.8936 98.0797 16.8943C97.5497 16.8943 97.2237 17.0943 97.2237 17.4653C97.2207 18.6353 102.236 17.8603 102.236 21.6303Z" fill="#001A49"/>
<path d="M113.413 14.4963V24.6903H110.355V23.7303C110.001 24.1532 109.553 24.4864 109.046 24.7026C108.539 24.9188 107.988 25.0119 107.439 24.9743C105.38 24.9743 103.627 23.5063 103.627 20.7533V14.4963H106.685V20.3073C106.659 20.5502 106.686 20.7959 106.765 21.0271C106.844 21.2584 106.973 21.4697 107.141 21.6462C107.31 21.8228 107.516 21.9604 107.743 22.0496C107.971 22.1387 108.215 22.1772 108.459 22.1623C109.58 22.1623 110.359 21.5103 110.359 20.0623V14.4963H113.413Z" fill="#001A49"/>
<path d="M130.941 18.4303V24.6903H127.883V18.6963C127.883 17.6773 127.393 17.0243 126.415 17.0243C125.395 17.0243 124.825 17.7383 124.825 18.9413V24.6903H121.766V18.6963C121.766 17.6773 121.277 17.0243 120.298 17.0243C119.279 17.0243 118.708 17.7383 118.708 18.9413V24.6903H115.65V14.4963H118.713V15.4303C119.03 15.0144 119.446 14.6846 119.923 14.4709C120.4 14.2573 120.923 14.1666 121.445 14.2073C121.968 14.1817 122.489 14.2921 122.957 14.5278C123.426 14.7635 123.825 15.1165 124.116 15.5523C124.455 15.0963 124.904 14.7338 125.421 14.4985C125.938 14.2633 126.506 14.1631 127.073 14.2073C129.413 14.2113 130.941 15.8823 130.941 18.4303Z" fill="#001A49"/>
<path d="M133.532 14.4333C134.785 14.4333 135.802 13.417 135.802 12.1633C135.802 10.9096 134.785 9.89328 133.532 9.89328C132.278 9.89328 131.262 10.9096 131.262 12.1633C131.262 13.417 132.278 14.4333 133.532 14.4333Z" fill="#001A49"/>
<path d="M34.4697 9.80728H37.5287V24.6903H34.4697V9.80728ZM39.2607 19.5933C39.2573 18.5245 39.5712 17.4788 40.1625 16.5886C40.7538 15.6983 41.596 15.0035 42.5824 14.5922C43.5688 14.1809 44.6551 14.0715 45.7037 14.278C46.7523 14.4844 47.7161 14.9974 48.473 15.7519C49.2299 16.5064 49.7459 17.4686 49.9557 18.5165C50.1654 19.5645 50.0595 20.6511 49.6513 21.6388C49.243 22.6265 48.5509 23.4709 47.6625 24.065C46.7741 24.6591 45.7294 24.9763 44.6607 24.9763C43.9509 24.9839 43.2467 24.85 42.5892 24.5823C41.9317 24.3147 41.3342 23.9188 40.8314 23.4176C40.3287 22.9165 39.9309 22.3202 39.6612 21.6635C39.3915 21.0069 39.2553 20.3031 39.2607 19.5933ZM47.0087 19.5933C46.9967 19.1323 46.849 18.685 46.5842 18.3075C46.3193 17.93 45.949 17.6389 45.5196 17.4708C45.0902 17.3026 44.6208 17.2648 44.17 17.362C43.7192 17.4593 43.3071 17.6873 42.9852 18.0175C42.6633 18.3478 42.4459 18.7656 42.3603 19.2188C42.2746 19.6719 42.3245 20.1402 42.5036 20.5652C42.6828 20.9901 42.9832 21.3528 43.3674 21.6079C43.7516 21.863 44.2025 21.9991 44.6637 21.9993C44.9795 22.0083 45.2937 21.9518 45.5866 21.8333C45.8794 21.7148 46.1446 21.5369 46.3653 21.3109C46.586 21.0848 46.7574 20.8155 46.8689 20.5199C46.9803 20.2243 47.0293 19.9088 47.0127 19.5933H47.0087ZM62.2577 14.4933V24.1783C62.2577 27.6033 59.5867 29.0503 56.8757 29.0503C55.9214 29.1223 54.9657 28.9302 54.1134 28.4951C53.2611 28.0599 52.545 27.3985 52.0437 26.5833L54.6527 25.0743C54.8633 25.4997 55.1987 25.8508 55.6142 26.0804C56.0297 26.31 56.5054 26.4073 56.9777 26.3593C57.2791 26.4004 57.586 26.3734 57.8755 26.2801C58.1651 26.1869 58.4301 26.0298 58.6508 25.8204C58.8716 25.6111 59.0425 25.3549 59.151 25.0707C59.2595 24.7864 59.3028 24.4815 59.2777 24.1783V23.2403C58.9195 23.6783 58.4636 24.0264 57.9466 24.2565C57.4296 24.4866 56.8659 24.5923 56.3007 24.5653C54.9551 24.5235 53.6787 23.9596 52.7416 22.993C51.8046 22.0264 51.2806 20.733 51.2806 19.3868C51.2806 18.0406 51.8046 16.7472 52.7416 15.7806C53.6787 14.814 54.9551 14.2501 56.3007 14.2083C56.8659 14.1812 57.4296 14.287 57.9466 14.5171C58.4636 14.7472 58.9195 15.0952 59.2777 15.5333V14.4933H62.2577ZM59.2817 19.3863C59.3018 18.8939 59.1743 18.4068 58.9153 17.9875C58.6564 17.5682 58.278 17.236 57.8288 17.0335C57.3795 16.831 56.88 16.7675 56.3944 16.8512C55.9087 16.9348 55.4592 17.1618 55.1037 17.503C54.7481 17.8442 54.5027 18.2839 54.399 18.7657C54.2954 19.2474 54.3382 19.7492 54.5219 20.2064C54.7057 20.6636 55.022 21.0554 55.4302 21.3314C55.8385 21.6075 56.3199 21.7551 56.8127 21.7553C57.134 21.7779 57.4565 21.733 57.7594 21.6234C58.0623 21.5139 58.3389 21.3422 58.5714 21.1194C58.804 20.8965 58.9873 20.6274 59.1097 20.3295C59.232 20.0315 59.2906 19.7113 59.2817 19.3893V19.3863ZM63.9897 19.5863C63.9863 18.5175 64.3002 17.4718 64.8915 16.5816C65.4828 15.6913 66.325 14.9965 67.3114 14.5852C68.2978 14.1739 69.3841 14.0645 70.4327 14.271C71.4813 14.4774 72.4451 14.9904 73.202 15.7449C73.9589 16.4994 74.4749 17.4616 74.6847 18.5095C74.8944 19.5575 74.7885 20.6441 74.3802 21.6318C73.972 22.6195 73.2799 23.4639 72.3915 24.058C71.5031 24.6521 70.4584 24.9693 69.3897 24.9693C68.6805 24.9769 67.9768 24.8432 67.3198 24.576C66.6628 24.3088 66.0656 23.9135 65.5629 23.4131C65.0603 22.9127 64.6623 22.3172 64.3922 21.6614C64.1221 21.0056 63.9853 20.3025 63.9897 19.5933V19.5863ZM71.7377 19.5863C71.7259 19.125 71.5783 18.6774 71.3134 18.2996C71.0485 17.9217 70.6781 17.6304 70.2484 17.462C69.8188 17.2936 69.3491 17.2557 68.898 17.353C68.4469 17.4503 68.0345 17.6784 67.7124 18.0088C67.3904 18.3393 67.1729 18.7574 67.0872 19.2108C67.0016 19.6643 67.0516 20.1329 67.2309 20.5581C67.4102 20.9832 67.711 21.3461 68.0955 21.6012C68.48 21.8563 68.9312 21.9923 69.3927 21.9923C69.7075 22.0007 70.0207 21.9439 70.3126 21.8256C70.6045 21.7073 70.8688 21.53 71.0889 21.3047C71.3091 21.0795 71.4804 20.8112 71.592 20.5167C71.7036 20.2222 71.7532 19.9078 71.7377 19.5933V19.5863Z" fill="#001A49"/>
</svg>
